<svg width="386" height="60" viewBox="0 0 386 60" fill="none" xmlns="http://www.w3.org/2000/svg">
<path d="M17.1806 0.0066865C18.6348 0.0066865 20.0925 -0.00334335 21.5501 0.0200589C21.5401 1.44759 21.5501 2.87513 21.5334 4.30266C28.6878 4.29932 35.8455 4.30935 42.9999 4.29932C42.9798 2.86844 42.9865 1.43756 42.9898 0.0066865C44.4374 0.00334333 45.885 0.00668634 47.3326 0C47.3193 5.70679 47.3427 11.4102 47.3193 17.1137C53.0461 17.1204 58.7696 17.1104 64.4965 17.1204C64.4363 22.1285 62.7614 27.1967 59.4483 31.0012C56.8105 34.0636 53.25 36.2032 49.489 37.6073C49.4923 36.0862 49.489 34.5617 49.4957 33.0406C52.2471 31.7568 54.8949 30.0484 56.7169 27.5711C58.111 25.7458 58.9936 23.5995 59.6923 21.4264C55.5669 21.4431 51.4414 21.4264 47.3159 21.4498C47.356 26.9961 47.3059 32.5424 47.3427 38.0888C45.9151 38.4097 44.4508 38.4699 42.9965 38.6103C42.9932 28.6109 42.9598 18.6114 43.0166 8.61201C35.8589 8.54849 28.7011 8.61201 21.5434 8.57858C21.5401 18.588 21.5534 28.5975 21.5367 38.6036C16.6423 38.4866 11.7044 36.9788 7.89323 33.8396C2.9119 29.8278 0.117011 23.459 0 17.1204C5.0181 17.107 10.0362 17.1237 15.051 17.1137C15.051 18.5513 15.0543 19.9922 15.0476 21.4331C11.661 21.4297 8.27435 21.4431 4.88772 21.423C5.93747 25.582 8.84603 29.0555 12.3263 31.4492C13.804 32.4689 15.4421 33.2478 17.1806 33.6992C17.1772 22.4661 17.1806 11.2364 17.1806 0.0066865Z" fill="#0093DD"/>
<path d="M23.6529 12.8511C25.8026 12.8445 27.9523 12.8478 30.0986 12.8478C30.1053 16.756 30.0618 20.6675 30.122 24.5756C31.1015 24.5389 32.1078 24.6559 33.0673 24.3985C33.9165 24.1243 34.4113 23.235 34.3912 22.3692C34.4246 19.1965 34.3812 16.0205 34.4079 12.8478C36.5542 12.8411 38.7006 12.8578 40.8469 12.8378C40.8736 16.5654 40.877 20.2964 40.8502 24.024C40.9137 25.7424 39.7403 27.2535 38.1891 27.8887C39.6901 28.5674 40.9037 30.015 40.8502 31.73C40.887 35.4343 40.8536 39.1385 40.8603 42.8427C38.7072 42.8461 36.5576 42.8461 34.4046 42.8427C34.3946 39.6834 34.4012 36.5275 34.4046 33.3715C34.4781 32.4054 33.8864 31.4626 33.0038 31.0781C32.0477 30.8809 31.0648 30.9979 30.0952 30.9745C30.0919 34.9295 30.0986 38.8878 30.0919 42.8427C27.9422 42.8461 25.7892 42.8461 23.6362 42.8427C23.6663 32.8433 23.6329 22.8472 23.6529 12.8511Z" fill="#0093DD"/>
<path d="M17.1705 47.132C27.2235 47.1153 37.2764 47.1153 47.3293 47.132C47.3092 49.2817 47.3761 51.4314 47.2925 53.581C45.1495 53.5376 43.0066 53.5777 40.8636 53.5543C40.8736 55.6872 40.8435 57.8202 40.8837 59.9565C35.1334 60.02 29.3798 60.0066 23.6295 59.9631C23.6697 57.8235 23.6362 55.6872 23.6496 53.5509C21.4933 53.5777 19.3369 53.5442 17.1806 53.5743C17.1739 51.428 17.1906 49.2784 17.1705 47.132Z" fill="#0093DD"/>
<path d="M85.9736 14.2031V27H83.3457V14.2031H85.9736ZM89.9111 14.2031V16.2686H79.4697V14.2031H89.9111ZM91.378 14.2031H96.1505C97.129 14.2031 97.9698 14.3496 98.6729 14.6426C99.3819 14.9355 99.9268 15.3691 100.308 15.9434C100.689 16.5176 100.879 17.2236 100.879 18.0615C100.879 18.7471 100.762 19.3359 100.527 19.8281C100.299 20.3145 99.9737 20.7217 99.5518 21.0498C99.1358 21.3721 98.6466 21.6299 98.0841 21.8232L97.2491 22.2627H93.1007L93.0831 20.2061H96.1681C96.6309 20.2061 97.0147 20.124 97.3194 19.96C97.6241 19.7959 97.8526 19.5674 98.005 19.2744C98.1632 18.9814 98.2423 18.6416 98.2423 18.2549C98.2423 17.8447 98.1661 17.4902 98.0138 17.1914C97.8614 16.8926 97.63 16.6641 97.3194 16.5059C97.0089 16.3477 96.6192 16.2686 96.1505 16.2686H94.0147V27H91.378V14.2031ZM98.5323 27L95.6143 21.2959L98.4005 21.2783L101.354 26.877V27H98.5323ZM114.29 13.4912H115.96C115.96 14.3525 115.849 15.0879 115.626 15.6973C115.404 16.3008 115.02 16.7637 114.475 17.0859C113.936 17.4023 113.189 17.5605 112.234 17.5605V16.1982C112.855 16.1982 113.312 16.0928 113.605 15.8818C113.898 15.665 114.085 15.3545 114.167 14.9502C114.249 14.5459 114.29 14.0596 114.29 13.4912ZM109.94 14.2031H112.568V22.6582C112.568 23.6426 112.357 24.4717 111.935 25.1455C111.519 25.8193 110.942 26.3262 110.203 26.666C109.471 27.0059 108.627 27.1758 107.672 27.1758C106.717 27.1758 105.867 27.0059 105.123 26.666C104.385 26.3262 103.805 25.8193 103.383 25.1455C102.967 24.4717 102.759 23.6426 102.759 22.6582V14.2031H105.396V22.6582C105.396 23.2324 105.487 23.7012 105.668 24.0645C105.85 24.4277 106.111 24.6943 106.45 24.8643C106.796 25.0342 107.203 25.1191 107.672 25.1191C108.153 25.1191 108.56 25.0342 108.894 24.8643C109.234 24.6943 109.491 24.4277 109.667 24.0645C109.849 23.7012 109.94 23.2324 109.94 22.6582V14.2031ZM125.75 13.2188H127.447C127.447 14.0391 127.329 14.7363 127.095 15.3105C126.867 15.8848 126.512 16.3242 126.032 16.6289C125.551 16.9336 124.933 17.0859 124.177 17.0859V15.7236C124.593 15.7236 124.915 15.624 125.144 15.4248C125.372 15.2256 125.531 14.9385 125.619 14.5635C125.706 14.1885 125.75 13.7402 125.75 13.2188ZM126.146 20.3027V20.9092C126.146 21.8818 126.014 22.7549 125.75 23.5283C125.493 24.3018 125.12 24.9609 124.634 25.5059C124.154 26.0449 123.579 26.458 122.911 26.7451C122.249 27.0322 121.517 27.1758 120.714 27.1758C120.076 27.1758 119.475 27.085 118.912 26.9033C118.356 26.7158 117.852 26.4463 117.401 26.0947C116.955 25.7373 116.572 25.3037 116.249 24.7939C115.927 24.2842 115.678 23.7041 115.502 23.0537C115.332 22.4033 115.247 21.6885 115.247 20.9092V20.3027C115.247 19.3242 115.379 18.4512 115.643 17.6836C115.912 16.9102 116.287 16.251 116.768 15.7061C117.254 15.1611 117.828 14.7451 118.491 14.458C119.159 14.1709 119.894 14.0273 120.697 14.0273C121.335 14.0273 121.933 14.1211 122.49 14.3086C123.052 14.4902 123.556 14.7598 124.001 15.1172C124.452 15.4688 124.836 15.8994 125.153 16.4092C125.475 16.9189 125.721 17.499 125.891 18.1494C126.061 18.7998 126.146 19.5176 126.146 20.3027ZM123.483 20.9092V20.2852C123.483 19.7461 123.442 19.2568 123.36 18.8174C123.284 18.3779 123.166 17.9912 123.008 17.6572C122.856 17.3232 122.665 17.0449 122.437 16.8223C122.214 16.5938 121.956 16.4209 121.663 16.3037C121.376 16.1865 121.054 16.1279 120.697 16.1279C120.251 16.1279 119.856 16.2188 119.51 16.4004C119.164 16.5762 118.871 16.8398 118.631 17.1914C118.397 17.543 118.218 17.9766 118.095 18.4922C117.972 19.0078 117.911 19.6055 117.911 20.2852V20.9092C117.911 21.4482 117.949 21.9375 118.025 22.377C118.107 22.8164 118.224 23.2061 118.376 23.5459C118.535 23.8799 118.725 24.1611 118.948 24.3896C119.176 24.6182 119.437 24.791 119.73 24.9082C120.029 25.0254 120.357 25.084 120.714 25.084C121.16 25.084 121.552 24.9932 121.892 24.8115C122.238 24.6299 122.528 24.3633 122.762 24.0117C123.002 23.6543 123.181 23.2178 123.298 22.7021C123.421 22.1807 123.483 21.583 123.483 20.9092ZM120.257 10.749L121.989 13.4561H119.914L117.506 10.749H120.257ZM138.705 14.2031V27H136.068L130.926 18.4219V27H128.29V14.2031H130.926L136.077 22.79V14.2031H138.705ZM151.105 20.3115V25.3828C150.906 25.623 150.598 25.8838 150.182 26.165C149.766 26.4404 149.23 26.6777 148.574 26.877C147.918 27.0762 147.124 27.1758 146.192 27.1758C145.366 27.1758 144.613 27.041 143.933 26.7715C143.254 26.4961 142.668 26.0947 142.175 25.5674C141.689 25.04 141.314 24.3955 141.05 23.6338C140.787 22.8662 140.655 21.9902 140.655 21.0059V20.2061C140.655 19.2217 140.781 18.3457 141.033 17.5781C141.291 16.8105 141.657 16.1631 142.131 15.6357C142.606 15.1084 143.172 14.707 143.828 14.4316C144.484 14.1562 145.214 14.0186 146.016 14.0186C147.13 14.0186 148.044 14.2002 148.758 14.5635C149.473 14.9209 150.018 15.4189 150.393 16.0576C150.774 16.6904 151.008 17.417 151.096 18.2373H148.539C148.474 17.8037 148.351 17.4258 148.17 17.1035C147.988 16.7812 147.727 16.5293 147.387 16.3477C147.053 16.166 146.62 16.0752 146.087 16.0752C145.647 16.0752 145.255 16.166 144.909 16.3477C144.569 16.5234 144.282 16.7842 144.047 17.1299C143.813 17.4756 143.634 17.9033 143.511 18.4131C143.388 18.9229 143.327 19.5146 143.327 20.1885V21.0059C143.327 21.6738 143.391 22.2656 143.52 22.7812C143.649 23.291 143.839 23.7217 144.091 24.0732C144.349 24.4189 144.666 24.6797 145.041 24.8555C145.416 25.0312 145.852 25.1191 146.35 25.1191C146.766 25.1191 147.112 25.084 147.387 25.0137C147.669 24.9434 147.894 24.8584 148.064 24.7588C148.24 24.6533 148.375 24.5537 148.468 24.46V22.1924H146.06V20.3115H151.105ZM161.835 27H159.049L159.066 24.9434H161.835C162.526 24.9434 163.109 24.7881 163.584 24.4775C164.059 24.1611 164.416 23.7012 164.656 23.0977C164.902 22.4941 165.025 21.7646 165.025 20.9092V20.2852C165.025 19.6289 164.955 19.0518 164.814 18.5537C164.68 18.0557 164.477 17.6367 164.208 17.2969C163.938 16.957 163.607 16.7021 163.215 16.5322C162.822 16.3564 162.371 16.2686 161.861 16.2686H158.996V14.2031H161.861C162.717 14.2031 163.499 14.3496 164.208 14.6426C164.923 14.9297 165.541 15.3428 166.062 15.8818C166.584 16.4209 166.985 17.0654 167.267 17.8154C167.554 18.5596 167.697 19.3887 167.697 20.3027V20.9092C167.697 21.8174 167.554 22.6465 167.267 23.3965C166.985 24.1465 166.584 24.791 166.062 25.3301C165.547 25.8633 164.929 26.2764 164.208 26.5693C163.493 26.8564 162.702 27 161.835 27ZM160.543 14.2031V27H157.906V14.2031H160.543ZM162.758 19.7666V21.3311H156.597V19.7666H162.758ZM174.587 16.3916L171.106 27H168.303L173.058 14.2031H174.842L174.587 16.3916ZM177.479 27L173.989 16.3916L173.708 14.2031H175.51L180.291 27H177.479ZM177.32 22.2363V24.3018H170.562V22.2363H177.32ZM172.935 29.0127C172.935 28.6729 173.064 28.3887 173.321 28.1602C173.579 27.9375 173.925 27.8262 174.358 27.8262C174.786 27.8262 175.129 27.9375 175.387 28.1602C175.65 28.3887 175.782 28.6729 175.782 29.0127C175.782 29.3467 175.65 29.6279 175.387 29.8564C175.129 30.085 174.786 30.1992 174.358 30.1992C173.925 30.1992 173.579 30.085 173.321 29.8564C173.064 29.6279 172.935 29.3467 172.935 29.0127ZM184.245 14.2031V27H181.617V14.2031H184.245ZM199.66 19.415V21.4717H192.98V19.415H199.66ZM193.762 14.2031V27H191.125V14.2031H193.762ZM201.54 14.2031V27H198.913V14.2031H201.54ZM214.31 20.3027V20.9092C214.31 21.8818 214.178 22.7549 213.915 23.5283C213.651 24.3018 213.279 24.9609 212.798 25.5059C212.318 26.0449 211.744 26.458 211.076 26.7451C210.414 27.0322 209.678 27.1758 208.87 27.1758C208.067 27.1758 207.332 27.0322 206.664 26.7451C206.002 26.458 205.427 26.0449 204.941 25.5059C204.455 24.9609 204.077 24.3018 203.807 23.5283C203.544 22.7549 203.412 21.8818 203.412 20.9092V20.3027C203.412 19.3242 203.544 18.4512 203.807 17.6836C204.071 16.9102 204.443 16.251 204.923 15.7061C205.41 15.1611 205.984 14.7451 206.646 14.458C207.314 14.1709 208.049 14.0273 208.852 14.0273C209.661 14.0273 210.396 14.1709 211.058 14.458C211.726 14.7451 212.3 15.1611 212.781 15.7061C213.267 16.251 213.642 16.9102 213.906 17.6836C214.175 18.4512 214.31 19.3242 214.31 20.3027ZM211.647 20.9092V20.2852C211.647 19.6055 211.586 19.0078 211.462 18.4922C211.339 17.9766 211.158 17.543 210.918 17.1914C210.677 16.8398 210.384 16.5762 210.039 16.4004C209.693 16.2188 209.297 16.1279 208.852 16.1279C208.407 16.1279 208.011 16.2188 207.666 16.4004C207.326 16.5762 207.036 16.8398 206.795 17.1914C206.561 17.543 206.382 17.9766 206.259 18.4922C206.136 19.0078 206.075 19.6055 206.075 20.2852V20.9092C206.075 21.583 206.136 22.1807 206.259 22.7021C206.382 23.2178 206.564 23.6543 206.804 24.0117C207.045 24.3633 207.337 24.6299 207.683 24.8115C208.029 24.9932 208.424 25.084 208.87 25.084C209.315 25.084 209.711 24.9932 210.056 24.8115C210.402 24.6299 210.692 24.3633 210.926 24.0117C211.161 23.6543 211.339 23.2178 211.462 22.7021C211.586 22.1807 211.647 21.583 211.647 20.9092ZM207.472 29.0654C207.472 28.7256 207.601 28.4414 207.859 28.2129C208.117 27.9902 208.462 27.8789 208.896 27.8789C209.324 27.8789 209.667 27.9902 209.924 28.2129C210.188 28.4414 210.32 28.7256 210.32 29.0654C210.32 29.3994 210.188 29.6807 209.924 29.9092C209.667 30.1377 209.324 30.252 208.896 30.252C208.462 30.252 208.117 30.1377 207.859 29.9092C207.601 29.6807 207.472 29.3994 207.472 29.0654ZM223.591 22.7549H226.218C226.166 23.6162 225.928 24.3809 225.507 25.0488C225.091 25.7168 224.508 26.2383 223.758 26.6133C223.013 26.9883 222.117 27.1758 221.068 27.1758C220.248 27.1758 219.512 27.0352 218.862 26.7539C218.212 26.4668 217.655 26.0566 217.192 25.5234C216.735 24.9902 216.386 24.3457 216.146 23.5898C215.906 22.834 215.786 21.9873 215.786 21.0498V20.1621C215.786 19.2246 215.909 18.3779 216.155 17.6221C216.407 16.8604 216.764 16.2129 217.227 15.6797C217.696 15.1465 218.256 14.7363 218.906 14.4492C219.556 14.1621 220.283 14.0186 221.086 14.0186C222.152 14.0186 223.051 14.2119 223.784 14.5986C224.522 14.9854 225.093 15.5186 225.498 16.1982C225.908 16.8779 226.154 17.6514 226.236 18.5186H223.599C223.57 18.0029 223.467 17.5664 223.292 17.209C223.116 16.8457 222.849 16.5732 222.492 16.3916C222.14 16.2041 221.672 16.1104 221.086 16.1104C220.646 16.1104 220.262 16.1924 219.934 16.3564C219.606 16.5205 219.331 16.7695 219.108 17.1035C218.885 17.4375 218.718 17.8594 218.607 18.3691C218.502 18.873 218.449 19.4648 218.449 20.1445V21.0498C218.449 21.7119 218.499 22.2949 218.598 22.7988C218.698 23.2969 218.85 23.7188 219.055 24.0645C219.266 24.4043 219.536 24.6621 219.864 24.8379C220.198 25.0078 220.599 25.0928 221.068 25.0928C221.619 25.0928 222.073 25.0049 222.43 24.8291C222.788 24.6533 223.06 24.3926 223.248 24.0469C223.441 23.7012 223.555 23.2705 223.591 22.7549ZM234.997 14.2031V27H232.36V14.2031H234.997ZM242.661 14.2031L237.59 20.5225L234.663 23.6689L234.188 21.1729L236.166 18.4658L239.427 14.2031H242.661ZM239.664 27L235.894 21.085L237.845 19.4502L242.784 27H239.664ZM246.571 14.2031V27H243.943V14.2031H246.571ZM257.592 24.9434V27H250.781V24.9434H257.592ZM251.642 14.2031V27H249.005V14.2031H251.642ZM256.704 19.415V21.4189H250.781V19.415H256.704ZM257.583 14.2031V16.2686H250.781V14.2031H257.583ZM250.244 13.4648L252.732 11.4258H254.138L256.634 13.4648H254.771L253.435 12.3311L252.099 13.4648H250.244ZM255.992 12.2607L257.434 9.89648H259.429L257.434 12.2607H255.992ZM269.509 14.2031V27H266.872L261.731 18.4219V27H259.094V14.2031H261.731L266.881 22.79V14.2031H269.509ZM281.461 14.2031V27H278.833V14.2031H281.461ZM285.398 14.2031V16.2686H274.957V14.2031H285.398ZM286.865 14.2031H291.638C292.616 14.2031 293.457 14.3496 294.16 14.6426C294.869 14.9355 295.414 15.3691 295.795 15.9434C296.176 16.5176 296.366 17.2236 296.366 18.0615C296.366 18.7471 296.249 19.3359 296.014 19.8281C295.786 20.3145 295.461 20.7217 295.039 21.0498C294.623 21.3721 294.134 21.6299 293.571 21.8232L292.736 22.2627H288.588L288.57 20.2061H291.655C292.118 20.2061 292.502 20.124 292.806 19.96C293.111 19.7959 293.34 19.5674 293.492 19.2744C293.65 18.9814 293.729 18.6416 293.729 18.2549C293.729 17.8447 293.653 17.4902 293.501 17.1914C293.348 16.8926 293.117 16.6641 292.806 16.5059C292.496 16.3477 292.106 16.2686 291.638 16.2686H289.502V27H286.865V14.2031ZM294.019 27L291.101 21.2959L293.888 21.2783L296.841 26.877V27H294.019ZM305.427 14.2031H308.055V22.6582C308.055 23.6426 307.844 24.4717 307.422 25.1455C307.006 25.8193 306.429 26.3262 305.69 26.666C304.958 27.0059 304.114 27.1758 303.159 27.1758C302.204 27.1758 301.354 27.0059 300.61 26.666C299.872 26.3262 299.292 25.8193 298.87 25.1455C298.454 24.4717 298.246 23.6426 298.246 22.6582V14.2031H300.883V22.6582C300.883 23.2324 300.974 23.7012 301.155 24.0645C301.337 24.4277 301.598 24.6943 301.937 24.8643C302.283 25.0342 302.69 25.1191 303.159 25.1191C303.64 25.1191 304.047 25.0342 304.381 24.8643C304.721 24.6943 304.978 24.4277 305.154 24.0645C305.336 23.7012 305.427 23.2324 305.427 22.6582V14.2031ZM301.92 13.4824L303.643 10.7754H306.393L303.977 13.4824H301.92ZM317.607 22.7549H320.235C320.183 23.6162 319.945 24.3809 319.524 25.0488C319.107 25.7168 318.524 26.2383 317.774 26.6133C317.03 26.9883 316.134 27.1758 315.085 27.1758C314.265 27.1758 313.529 27.0352 312.879 26.7539C312.229 26.4668 311.672 26.0566 311.209 25.5234C310.752 24.9902 310.403 24.3457 310.163 23.5898C309.923 22.834 309.803 21.9873 309.803 21.0498V20.1621C309.803 19.2246 309.926 18.3779 310.172 17.6221C310.424 16.8604 310.781 16.2129 311.244 15.6797C311.713 15.1465 312.273 14.7363 312.923 14.4492C313.573 14.1621 314.3 14.0186 315.103 14.0186C316.169 14.0186 317.068 14.2119 317.801 14.5986C318.539 14.9854 319.11 15.5186 319.515 16.1982C319.925 16.8779 320.171 17.6514 320.253 18.5186H317.616C317.587 18.0029 317.484 17.5664 317.309 17.209C317.133 16.8457 316.866 16.5732 316.509 16.3916C316.157 16.2041 315.689 16.1104 315.103 16.1104C314.663 16.1104 314.279 16.1924 313.951 16.3564C313.623 16.5205 313.348 16.7695 313.125 17.1035C312.902 17.4375 312.735 17.8594 312.624 18.3691C312.519 18.873 312.466 19.4648 312.466 20.1445V21.0498C312.466 21.7119 312.516 22.2949 312.615 22.7988C312.715 23.2969 312.867 23.7188 313.072 24.0645C313.283 24.4043 313.553 24.6621 313.881 24.8379C314.215 25.0078 314.616 25.0928 315.085 25.0928C315.636 25.0928 316.09 25.0049 316.447 24.8291C316.805 24.6533 317.077 24.3926 317.265 24.0469C317.458 23.7012 317.572 23.2705 317.607 22.7549ZM334.911 19.415V21.4717H328.232V19.415H334.911ZM329.014 14.2031V27H326.377V14.2031H329.014ZM336.792 14.2031V27H334.164V14.2031H336.792ZM344.412 16.3916L340.931 27H338.127L342.882 14.2031H344.667L344.412 16.3916ZM347.303 27L343.814 16.3916L343.533 14.2031H345.334L350.116 27H347.303ZM347.145 22.2363V24.3018H340.386V22.2363H347.145ZM343.647 10.7754L345.378 13.4824H343.304L340.896 10.7754H343.647ZM366.128 14.2031V27H363.491L358.349 18.4219V27H355.713V14.2031H358.349L363.5 22.79V14.2031H366.128ZM378.897 20.3027V20.9092C378.897 21.8818 378.766 22.7549 378.502 23.5283C378.238 24.3018 377.866 24.9609 377.386 25.5059C376.905 26.0449 376.331 26.458 375.663 26.7451C375.001 27.0322 374.266 27.1758 373.457 27.1758C372.654 27.1758 371.919 27.0322 371.251 26.7451C370.589 26.458 370.015 26.0449 369.528 25.5059C369.042 24.9609 368.664 24.3018 368.394 23.5283C368.131 22.7549 367.999 21.8818 367.999 20.9092V20.3027C367.999 19.3242 368.131 18.4512 368.394 17.6836C368.658 16.9102 369.03 16.251 369.511 15.7061C369.997 15.1611 370.571 14.7451 371.233 14.458C371.901 14.1709 372.637 14.0273 373.439 14.0273C374.248 14.0273 374.983 14.1709 375.645 14.458C376.313 14.7451 376.888 15.1611 377.368 15.7061C377.854 16.251 378.229 16.9102 378.493 17.6836C378.763 18.4512 378.897 19.3242 378.897 20.3027ZM376.234 20.9092V20.2852C376.234 19.6055 376.173 19.0078 376.05 18.4922C375.927 17.9766 375.745 17.543 375.505 17.1914C375.265 16.8398 374.972 16.5762 374.626 16.4004C374.28 16.2188 373.885 16.1279 373.439 16.1279C372.994 16.1279 372.599 16.2188 372.253 16.4004C371.913 16.5762 371.623 16.8398 371.383 17.1914C371.148 17.543 370.97 17.9766 370.847 18.4922C370.724 19.0078 370.662 19.6055 370.662 20.2852V20.9092C370.662 21.583 370.724 22.1807 370.847 22.7021C370.97 23.2178 371.151 23.6543 371.391 24.0117C371.632 24.3633 371.925 24.6299 372.27 24.8115C372.616 24.9932 373.012 25.084 373.457 25.084C373.902 25.084 374.298 24.9932 374.643 24.8115C374.989 24.6299 375.279 24.3633 375.514 24.0117C375.748 23.6543 375.927 23.2178 376.05 22.7021C376.173 22.1807 376.234 21.583 376.234 20.9092ZM374.169 10.7666L376.823 13.21V13.3154H374.81L373.431 12.0322L372.068 13.3154H370.091V13.1836L372.701 10.7666H374.169ZM372.059 29.0654C372.059 28.7256 372.188 28.4414 372.446 28.2129C372.704 27.9902 373.05 27.8789 373.483 27.8789C373.911 27.8789 374.254 27.9902 374.512 28.2129C374.775 28.4414 374.907 28.7256 374.907 29.0654C374.907 29.3994 374.775 29.6807 374.512 29.9092C374.254 30.1377 373.911 30.252 373.483 30.252C373.05 30.252 372.704 30.1377 372.446 29.9092C372.188 29.6807 372.059 29.3994 372.059 29.0654ZM383.564 14.2031V27H380.936V14.2031H383.564Z" fill="#0093DD"/>
<path d="M86.0344 39.1367V40.0566H81.4172V39.1367H86.0344ZM81.593 35.4688V44H80.4621V35.4688H81.593ZM87.0188 35.4688V44H85.8938V35.4688H87.0188ZM95.8922 36.2246L93.068 44H91.9137L95.1656 35.4688H95.9098L95.8922 36.2246ZM98.2594 44L95.4293 36.2246L95.4117 35.4688H96.1559L99.4195 44H98.2594ZM98.1129 40.8418V41.7676H93.3199V40.8418H98.1129ZM110.725 35.4688V44H109.588L105.293 37.4199V44H104.162V35.4688H105.293L109.605 42.0664V35.4688H110.725ZM122.897 39.4648V40.0039C122.897 40.6445 122.817 41.2188 122.657 41.7266C122.496 42.2344 122.266 42.666 121.965 43.0215C121.664 43.377 121.303 43.6484 120.881 43.8359C120.463 44.0234 119.995 44.1172 119.475 44.1172C118.971 44.1172 118.508 44.0234 118.086 43.8359C117.668 43.6484 117.305 43.377 116.996 43.0215C116.692 42.666 116.455 42.2344 116.288 41.7266C116.12 41.2188 116.036 40.6445 116.036 40.0039V39.4648C116.036 38.8242 116.118 38.252 116.282 37.748C116.45 37.2402 116.686 36.8086 116.991 36.4531C117.295 36.0938 117.657 35.8203 118.075 35.6328C118.496 35.4453 118.959 35.3516 119.463 35.3516C119.983 35.3516 120.452 35.4453 120.87 35.6328C121.291 35.8203 121.653 36.0938 121.954 36.4531C122.258 36.8086 122.491 37.2402 122.651 37.748C122.815 38.252 122.897 38.8242 122.897 39.4648ZM121.778 40.0039V39.4531C121.778 38.9453 121.725 38.4961 121.62 38.1055C121.518 37.7148 121.368 37.3867 121.168 37.1211C120.969 36.8555 120.725 36.6543 120.436 36.5176C120.151 36.3809 119.827 36.3125 119.463 36.3125C119.112 36.3125 118.793 36.3809 118.508 36.5176C118.227 36.6543 117.985 36.8555 117.782 37.1211C117.582 37.3867 117.428 37.7148 117.319 38.1055C117.209 38.4961 117.155 38.9453 117.155 39.4531V40.0039C117.155 40.5156 117.209 40.9688 117.319 41.3633C117.428 41.7539 117.584 42.084 117.788 42.3535C117.995 42.6191 118.239 42.8203 118.52 42.957C118.805 43.0938 119.123 43.1621 119.475 43.1621C119.842 43.1621 120.168 43.0938 120.454 42.957C120.739 42.8203 120.979 42.6191 121.174 42.3535C121.373 42.084 121.524 41.7539 121.625 41.3633C121.727 40.9688 121.778 40.5156 121.778 40.0039ZM129.403 35.4688V44H128.272V35.4688H129.403ZM144.795 36.2246L141.97 44H140.816L144.068 35.4688H144.812L144.795 36.2246ZM147.162 44L144.332 36.2246L144.314 35.4688H145.058L148.322 44H147.162ZM147.015 40.8418V41.7676H142.222V40.8418H147.015ZM153.064 35.4688H155.889C156.529 35.4688 157.07 35.5664 157.512 35.7617C157.957 35.957 158.295 36.2461 158.525 36.6289C158.76 37.0078 158.877 37.4746 158.877 38.0293C158.877 38.4199 158.797 38.7773 158.637 39.1016C158.48 39.4219 158.254 39.6953 157.957 39.9219C157.664 40.1445 157.312 40.3105 156.902 40.4199L156.586 40.543H153.932L153.92 39.623H155.924C156.33 39.623 156.668 39.5527 156.938 39.4121C157.207 39.2676 157.41 39.0742 157.547 38.832C157.684 38.5898 157.752 38.3223 157.752 38.0293C157.752 37.7012 157.688 37.4141 157.559 37.168C157.43 36.9219 157.227 36.7324 156.949 36.5996C156.676 36.4629 156.322 36.3945 155.889 36.3945H154.195V44H153.064V35.4688ZM158.051 44L155.977 40.1328L157.154 40.127L159.258 43.9297V44H158.051ZM169.209 41.2871H170.334C170.276 41.8262 170.121 42.3086 169.871 42.7344C169.621 43.1602 169.268 43.498 168.811 43.748C168.354 43.9941 167.784 44.1172 167.1 44.1172C166.6 44.1172 166.145 44.0234 165.735 43.8359C165.329 43.6484 164.979 43.3828 164.686 43.0391C164.393 42.6914 164.166 42.2754 164.006 41.791C163.85 41.3027 163.772 40.7598 163.772 40.1621V39.3125C163.772 38.7148 163.85 38.1738 164.006 37.6895C164.166 37.2012 164.395 36.7832 164.692 36.4355C164.993 36.0879 165.354 35.8203 165.776 35.6328C166.198 35.4453 166.672 35.3516 167.2 35.3516C167.844 35.3516 168.389 35.4727 168.834 35.7148C169.28 35.957 169.625 36.293 169.871 36.7227C170.121 37.1484 170.276 37.6426 170.334 38.2051H169.209C169.155 37.8066 169.053 37.4648 168.905 37.1797C168.756 36.8906 168.545 36.668 168.272 36.5117C167.998 36.3555 167.641 36.2773 167.2 36.2773C166.821 36.2773 166.487 36.3496 166.198 36.4941C165.913 36.6387 165.672 36.8438 165.477 37.1094C165.286 37.375 165.141 37.6934 165.043 38.0645C164.946 38.4355 164.897 38.8477 164.897 39.3008V40.1621C164.897 40.5801 164.94 40.9727 165.026 41.3398C165.116 41.707 165.25 42.0293 165.43 42.3066C165.61 42.584 165.838 42.8027 166.116 42.9629C166.393 43.1191 166.721 43.1973 167.1 43.1973C167.58 43.1973 167.963 43.1211 168.248 42.9688C168.534 42.8164 168.748 42.5977 168.893 42.3125C169.041 42.0273 169.147 41.6855 169.209 41.2871ZM181.048 39.1367V40.0566H176.43V39.1367H181.048ZM176.606 35.4688V44H175.475V35.4688H176.606ZM182.032 35.4688V44H180.907V35.4688H182.032ZM188.855 35.4688V44H187.724V35.4688H188.855ZM197.488 35.4688V44H196.375V35.4688H197.488ZM200.23 35.4688V36.3945H193.638V35.4688H200.23ZM210.516 43.0801V44H205.998V43.0801H210.516ZM206.227 35.4688V44H205.096V35.4688H206.227ZM209.918 39.1367V40.0566H205.998V39.1367H209.918ZM210.457 35.4688V36.3945H205.998V35.4688H210.457ZM220.666 41.2871H221.791C221.733 41.8262 221.579 42.3086 221.329 42.7344C221.079 43.1602 220.725 43.498 220.268 43.748C219.811 43.9941 219.241 44.1172 218.557 44.1172C218.057 44.1172 217.602 44.0234 217.192 43.8359C216.786 43.6484 216.436 43.3828 216.143 43.0391C215.85 42.6914 215.623 42.2754 215.463 41.791C215.307 41.3027 215.229 40.7598 215.229 40.1621V39.3125C215.229 38.7148 215.307 38.1738 215.463 37.6895C215.623 37.2012 215.852 36.7832 216.149 36.4355C216.45 36.0879 216.811 35.8203 217.233 35.6328C217.655 35.4453 218.129 35.3516 218.657 35.3516C219.301 35.3516 219.846 35.4727 220.291 35.7148C220.737 35.957 221.082 36.293 221.329 36.7227C221.579 37.1484 221.733 37.6426 221.791 38.2051H220.666C220.612 37.8066 220.51 37.4648 220.362 37.1797C220.213 36.8906 220.002 36.668 219.729 36.5117C219.455 36.3555 219.098 36.2773 218.657 36.2773C218.278 36.2773 217.944 36.3496 217.655 36.4941C217.37 36.6387 217.129 36.8438 216.934 37.1094C216.743 37.375 216.598 37.6934 216.5 38.0645C216.403 38.4355 216.354 38.8477 216.354 39.3008V40.1621C216.354 40.5801 216.397 40.9727 216.483 41.3398C216.573 41.707 216.707 42.0293 216.887 42.3066C217.067 42.584 217.295 42.8027 217.573 42.9629C217.85 43.1191 218.178 43.1973 218.557 43.1973C219.038 43.1973 219.42 43.1211 219.705 42.9688C219.991 42.8164 220.205 42.5977 220.35 42.3125C220.498 42.0273 220.604 41.6855 220.666 41.2871ZM229.909 35.4688V44H228.796V35.4688H229.909ZM232.651 35.4688V36.3945H226.059V35.4688H232.651ZM242.398 35.4688H243.523V41.2402C243.523 41.8809 243.38 42.4141 243.095 42.8398C242.81 43.2656 242.431 43.5859 241.958 43.8008C241.489 44.0117 240.98 44.1172 240.429 44.1172C239.851 44.1172 239.327 44.0117 238.859 43.8008C238.394 43.5859 238.025 43.2656 237.751 42.8398C237.482 42.4141 237.347 41.8809 237.347 41.2402V35.4688H238.466V41.2402C238.466 41.6855 238.548 42.0527 238.712 42.3418C238.876 42.6309 239.105 42.8457 239.398 42.9863C239.695 43.127 240.038 43.1973 240.429 43.1973C240.823 43.1973 241.167 43.127 241.46 42.9863C241.757 42.8457 241.988 42.6309 242.152 42.3418C242.316 42.0527 242.398 41.6855 242.398 41.2402V35.4688ZM248.898 35.4688H251.722C252.363 35.4688 252.904 35.5664 253.345 35.7617C253.791 35.957 254.129 36.2461 254.359 36.6289C254.593 37.0078 254.711 37.4746 254.711 38.0293C254.711 38.4199 254.63 38.7773 254.47 39.1016C254.314 39.4219 254.088 39.6953 253.791 39.9219C253.498 40.1445 253.146 40.3105 252.736 40.4199L252.42 40.543H249.765L249.754 39.623H251.757C252.164 39.623 252.502 39.5527 252.771 39.4121C253.041 39.2676 253.244 39.0742 253.38 38.832C253.517 38.5898 253.586 38.3223 253.586 38.0293C253.586 37.7012 253.521 37.4141 253.392 37.168C253.263 36.9219 253.06 36.7324 252.783 36.5996C252.509 36.4629 252.156 36.3945 251.722 36.3945H250.029V44H248.898V35.4688ZM253.884 44L251.81 40.1328L252.988 40.127L255.091 43.9297V44H253.884ZM263.051 36.2246L260.227 44H259.072L262.324 35.4688H263.068L263.051 36.2246ZM265.418 44L262.588 36.2246L262.57 35.4688H263.314L266.578 44H265.418ZM265.271 40.8418V41.7676H260.479V40.8418H265.271ZM276.495 43.0801V44H272.229V43.0801H276.495ZM272.452 35.4688V44H271.321V35.4688H272.452ZM292.847 35.4688H293.972V41.2402C293.972 41.8809 293.829 42.4141 293.544 42.8398C293.259 43.2656 292.88 43.5859 292.407 43.8008C291.939 44.0117 291.429 44.1172 290.878 44.1172C290.3 44.1172 289.777 44.0117 289.308 43.8008C288.843 43.5859 288.474 43.2656 288.2 42.8398C287.931 42.4141 287.796 41.8809 287.796 41.2402V35.4688H288.915V41.2402C288.915 41.6855 288.997 42.0527 289.161 42.3418C289.325 42.6309 289.554 42.8457 289.847 42.9863C290.144 43.127 290.488 43.1973 290.878 43.1973C291.273 43.1973 291.616 43.127 291.909 42.9863C292.206 42.8457 292.437 42.6309 292.601 42.3418C292.765 42.0527 292.847 41.6855 292.847 41.2402V35.4688ZM305.91 35.4688V44H304.773L300.478 37.4199V44H299.347V35.4688H300.478L304.791 42.0664V35.4688H305.91ZM312.727 35.4688V44H311.596V35.4688H312.727ZM321.137 42.7051L323.651 35.4688H324.875L321.717 44H320.844L321.137 42.7051ZM318.788 35.4688L321.278 42.7051L321.588 44H320.715L317.563 35.4688H318.788ZM335.044 43.0801V44H330.526V43.0801H335.044ZM330.755 35.4688V44H329.624V35.4688H330.755ZM334.446 39.1367V40.0566H330.526V39.1367H334.446ZM334.985 35.4688V36.3945H330.526V35.4688H334.985ZM340.044 35.4688H342.868C343.509 35.4688 344.05 35.5664 344.491 35.7617C344.937 35.957 345.275 36.2461 345.505 36.6289C345.739 37.0078 345.857 37.4746 345.857 38.0293C345.857 38.4199 345.777 38.7773 345.616 39.1016C345.46 39.4219 345.234 39.6953 344.937 39.9219C344.644 40.1445 344.292 40.3105 343.882 40.4199L343.566 40.543H340.911L340.9 39.623H342.904C343.31 39.623 343.648 39.5527 343.917 39.4121C344.187 39.2676 344.39 39.0742 344.527 38.832C344.663 38.5898 344.732 38.3223 344.732 38.0293C344.732 37.7012 344.667 37.4141 344.538 37.168C344.409 36.9219 344.206 36.7324 343.929 36.5996C343.655 36.4629 343.302 36.3945 342.868 36.3945H341.175V44H340.044V35.4688ZM345.03 44L342.956 40.1328L344.134 40.127L346.237 43.9297V44H345.03ZM355.586 41.8438C355.586 41.6445 355.554 41.4688 355.492 41.3164C355.433 41.1602 355.328 41.0195 355.175 40.8945C355.027 40.7695 354.82 40.6504 354.554 40.5371C354.293 40.4238 353.961 40.3086 353.558 40.1914C353.136 40.0664 352.755 39.9277 352.416 39.7754C352.076 39.6191 351.785 39.4414 351.543 39.2422C351.3 39.043 351.115 38.8145 350.986 38.5566C350.857 38.2988 350.793 38.0039 350.793 37.6719C350.793 37.3398 350.861 37.0332 350.998 36.752C351.134 36.4707 351.33 36.2266 351.584 36.0195C351.841 35.8086 352.148 35.6445 352.504 35.5273C352.859 35.4102 353.255 35.3516 353.693 35.3516C354.334 35.3516 354.877 35.4746 355.322 35.7207C355.771 35.9629 356.113 36.2812 356.347 36.6758C356.582 37.0664 356.699 37.4844 356.699 37.9297H355.574C355.574 37.6094 355.505 37.3262 355.369 37.0801C355.232 36.8301 355.025 36.6348 354.748 36.4941C354.47 36.3496 354.119 36.2773 353.693 36.2773C353.291 36.2773 352.959 36.3379 352.697 36.459C352.435 36.5801 352.24 36.7441 352.111 36.9512C351.986 37.1582 351.923 37.3945 351.923 37.6602C351.923 37.8398 351.961 38.0039 352.035 38.1523C352.113 38.2969 352.232 38.4316 352.392 38.5566C352.556 38.6816 352.763 38.7969 353.013 38.9023C353.267 39.0078 353.57 39.1094 353.922 39.207C354.406 39.3438 354.824 39.4961 355.175 39.6641C355.527 39.832 355.816 40.0215 356.043 40.2324C356.273 40.4395 356.443 40.6758 356.552 40.9414C356.666 41.2031 356.722 41.5 356.722 41.832C356.722 42.1797 356.652 42.4941 356.511 42.7754C356.371 43.0566 356.17 43.2969 355.908 43.4961C355.646 43.6953 355.332 43.8496 354.964 43.959C354.601 44.0645 354.195 44.1172 353.746 44.1172C353.351 44.1172 352.963 44.0625 352.58 43.9531C352.201 43.8438 351.855 43.6797 351.543 43.4609C351.234 43.2422 350.986 42.9727 350.798 42.6523C350.615 42.3281 350.523 41.9531 350.523 41.5273H351.648C351.648 41.8203 351.705 42.0723 351.818 42.2832C351.931 42.4902 352.086 42.6621 352.281 42.7988C352.48 42.9355 352.705 43.0371 352.955 43.1035C353.209 43.166 353.472 43.1973 353.746 43.1973C354.14 43.1973 354.474 43.1426 354.748 43.0332C355.021 42.9238 355.228 42.7676 355.369 42.5645C355.513 42.3613 355.586 42.1211 355.586 41.8438ZM362.977 35.4688V44H361.846V35.4688H362.977ZM371.61 35.4688V44H370.496V35.4688H371.61ZM374.352 35.4688V36.3945H367.76V35.4688H374.352ZM379.704 35.4688L381.919 39.752L384.139 35.4688H385.423L382.481 40.8125V44H381.35V40.8125L378.409 35.4688H379.704Z" fill="#0093DD"/>
</svg>
